<?xml version="1.0" encoding="utf-8"?>
<!-- Generator: Adobe Illustrator 27.9.0, SVG Export Plug-In . SVG Version: 6.00 Build 0)  -->
<svg version="1.1" id="Layer_1" xmlns="http://www.w3.org/2000/svg" xmlns:xlink="http://www.w3.org/1999/xlink" x="0px" y="0px"
	 viewBox="0 0 788.87 970.43" style="enable-background:new 0 0 788.87 970.43;" xml:space="preserve">
<style type="text/css">
	.st0{fill:#373B4C;}
	.st1{fill:#4CC1FF;}
	.st2{fill:#FFFFFF;}
	.st3{fill:#37ABFE;}
	.st4{fill:#313546;}
</style>
<g>
	<path class="st0" d="M738.87,970.43H50c-27.61,0-50-22.39-50-50V50C0,22.39,22.39,0,50,0h688.87c27.61,0,50,22.39,50,50v870.43
		C788.87,948.05,766.48,970.43,738.87,970.43z"/>
	<g>
		<path class="st1" d="M669.78,287.42h-38.01l-32.99,16l11.27-18.01c-1.82,0,5.14,1.76,3.46,1.31c-8.49-2.31-14.73-10.08-14.73-19.3
			v-38c0-11.05,8.95-20,20-20h51c11.05,0,20,8.95,20,20v38C689.78,278.47,680.82,287.42,669.78,287.42z"/>
		<g>
			<path class="st1" d="M669.78,392.89h-51c-11.05,0-20-8.95-20-20v-46.15c0-11.05,8.95-20,20-20h51c11.05,0,20,8.95,20,20v46.15
				C689.78,383.93,680.82,392.89,669.78,392.89z"/>
			<path class="st2" d="M569.06,392.74h-51c-11.05,0-20-8.95-20-20v-46.15c0-11.05,8.95-20,20-20h51c11.05,0,20,8.95,20,20v46.15
				C589.06,383.79,580.11,392.74,569.06,392.74z"/>
		</g>
		<g>
			<circle class="st2" cx="275.35" cy="142.34" r="42"/>
			<path class="st2" d="M263.93,193.48c0,0,38.25,4.96,38.25,35.47c0,30.51,0.97,51.21,0.97,51.21h77.96c0,0,29.63,5.99,29.63,29.63
				s0.58,65.28,0.58,65.28s-7.44,19.85-23.06,19.85c-19.17,0-26.59-18.35-26.59-18.35V333.3h-81.21c0,0-36.2-9.26-38.22-38.22
				c-2.03-28.96-1.06-49.3-1.06-49.3l-35.83-1.45l-39.17,40.71c0,0-42.37,17.3-42.37-26.48c0-22.52,63.85-65.08,63.85-65.08H263.93z
				"/>
			<path class="st2" d="M301.45,193.48c0,0,11.62,8.23,13.56,22.76c0.79,5.94,0.61,23.97,0.61,23.97h51.57l50.84-59.56
				c0,0,2.78-18.16-6.72-26.87c-9.19-8.43-28.51-6.9-28.51-6.9l-39.46,45.15L301.45,193.48z"/>
			<path class="st2" d="M238.26,317.44l0.97,36.56c0,0-5.03-0.17-6.05,0.97c-15.74,17.43-59.32,65.85-59.32,65.85
				s-1.76,19.43,9.2,30.02c14.28,13.8,28.08,7.51,28.08,7.51l75.05-79.65v-28.08c0,0-16.95-2.46-22.52-6.05
				C256.6,339.98,238.26,317.44,238.26,317.44z"/>
		</g>
		<g>
			<path class="st3" d="M669.78,688.56h-51c-11.05,0-20-8.95-20-20v-46.15c0-11.05,8.95-20,20-20h51c11.05,0,20,8.95,20,20v46.15
				C689.78,679.61,680.82,688.56,669.78,688.56z"/>
			<path class="st3" d="M569.06,688.42h-51c-11.05,0-20-8.95-20-20v-46.15c0-11.05,8.95-20,20-20h51c11.05,0,20,8.95,20,20v46.15
				C589.06,679.46,580.11,688.42,569.06,688.42z"/>
			<path class="st3" d="M367.64,688.42h-51c-11.05,0-20-8.95-20-20v-46.15c0-11.05,8.95-20,20-20h51c11.05,0,20,8.95,20,20v46.15
				C387.64,679.46,378.69,688.42,367.64,688.42z"/>
			<path class="st3" d="M266.93,688.56h-51c-11.05,0-20-8.95-20-20v-46.15c0-11.05,8.95-20,20-20h51c11.05,0,20,8.95,20,20v46.15
				C286.93,679.61,277.97,688.56,266.93,688.56z"/>
			<path class="st2" d="M166.22,688.42h-51c-11.05,0-20-8.95-20-20v-46.15c0-11.05,8.95-20,20-20h51c11.05,0,20,8.95,20,20v46.15
				C186.22,679.46,177.26,688.42,166.22,688.42z"/>
			<path class="st3" d="M468.35,688.42h-51c-11.05,0-20-8.95-20-20v-46.15c0-11.05,8.95-20,20-20h51c11.05,0,20,8.95,20,20v46.15
				C488.35,679.46,479.4,688.42,468.35,688.42z"/>
		</g>
		<g>
			<path class="st3" d="M669.78,590h-51c-11.05,0-20-8.95-20-20v-46.15c0-11.05,8.95-20,20-20h51c11.05,0,20,8.95,20,20V570
				C689.78,581.05,680.82,590,669.78,590z"/>
			<path class="st3" d="M569.06,589.86h-51c-11.05,0-20-8.95-20-20v-46.15c0-11.05,8.95-20,20-20h51c11.05,0,20,8.95,20,20v46.15
				C589.06,580.9,580.11,589.86,569.06,589.86z"/>
			<path class="st3" d="M367.64,589.86h-51c-11.05,0-20-8.95-20-20v-46.15c0-11.05,8.95-20,20-20h51c11.05,0,20,8.95,20,20v46.15
				C387.64,580.9,378.69,589.86,367.64,589.86z"/>
			<path class="st2" d="M266.93,590h-51c-11.05,0-20-8.95-20-20v-46.15c0-11.05,8.95-20,20-20h51c11.05,0,20,8.95,20,20V570
				C286.93,581.05,277.97,590,266.93,590z"/>
			<path class="st3" d="M468.35,589.86h-51c-11.05,0-20-8.95-20-20v-46.15c0-11.05,8.95-20,20-20h51c11.05,0,20,8.95,20,20v46.15
				C488.35,580.9,479.4,589.86,468.35,589.86z"/>
		</g>
		<g>
			<path class="st1" d="M669.78,491.44h-51c-11.05,0-20-8.95-20-20v-46.15c0-11.05,8.95-20,20-20h51c11.05,0,20,8.95,20,20v46.15
				C689.78,482.49,680.82,491.44,669.78,491.44z"/>
			<path class="st1" d="M569.06,491.3h-51c-11.05,0-20-8.95-20-20v-46.15c0-11.05,8.95-20,20-20h51c11.05,0,20,8.95,20,20v46.15
				C589.06,482.35,580.11,491.3,569.06,491.3z"/>
			<path class="st2" d="M367.64,491.3h-51c-11.05,0-20-8.95-20-20v-46.15c0-11.05,8.95-20,20-20h51c11.05,0,20,8.95,20,20v46.15
				C387.64,482.35,378.69,491.3,367.64,491.3z"/>
			<path class="st2" d="M468.35,491.3h-51c-11.05,0-20-8.95-20-20v-46.15c0-11.05,8.95-20,20-20h51c11.05,0,20,8.95,20,20v46.15
				C488.35,482.35,479.4,491.3,468.35,491.3z"/>
		</g>
		<g>
			<path class="st2" d="M653.65,190.68h-97.74c0,0-20.01,19.25-26.61,25.74c-9.91,9.74-27.65,12.87-27.65,12.87
				c-6.07,0,11.47-39.96,6.32-42.38c-13.6-6.39-23.01-20.21-23.01-36.22v-50.43c0-22.09,17.91-40,40-40h128.7
				c22.09,0,40,17.91,40,40v50.43C693.65,172.78,675.75,190.68,653.65,190.68z"/>
			<g>
				<circle class="st4" cx="542.22" cy="124.68" r="13.83"/>
				<circle class="st4" cx="586.83" cy="124.68" r="13.83"/>
				<circle class="st4" cx="636.39" cy="124.68" r="13.83"/>
			</g>
		</g>
	</g>
	<g>
		<g>
			<path class="st2" d="M105.29,810.49v-16.68c3.39,2.04,6.76,3.56,10.13,4.56c3.37,1,6.55,1.5,9.54,1.5c3.65,0,6.52-0.5,8.63-1.5
				c2.11-1,3.16-2.52,3.16-4.56c0-1.3-0.48-2.39-1.43-3.26c-0.96-0.87-2.18-1.63-3.68-2.28c-1.5-0.65-3.14-1.24-4.92-1.76
				c-1.78-0.52-3.5-1.11-5.15-1.76c-2.65-1-4.98-2.07-7-3.22c-2.02-1.15-3.71-2.49-5.08-4.01c-1.37-1.52-2.41-3.28-3.13-5.28
				c-0.72-2-1.08-4.36-1.08-7.1c0-3.73,0.81-6.95,2.44-9.64c1.63-2.69,3.8-4.9,6.51-6.61c2.71-1.71,5.82-2.97,9.32-3.78
				c3.5-0.8,7.13-1.21,10.91-1.21c2.95,0,5.95,0.23,8.99,0.68c3.04,0.46,6.04,1.12,8.99,1.99v15.9c-2.61-1.52-5.4-2.66-8.37-3.42
				c-2.98-0.76-5.9-1.14-8.76-1.14c-1.35,0-2.62,0.12-3.81,0.36c-1.2,0.24-2.25,0.59-3.16,1.04s-1.63,1.04-2.15,1.76
				c-0.52,0.72-0.78,1.53-0.78,2.44c0,1.22,0.39,2.26,1.17,3.13c0.78,0.87,1.8,1.62,3.06,2.25c1.26,0.63,2.66,1.19,4.2,1.69
				c1.54,0.5,3.07,1.01,4.59,1.53c2.74,0.96,5.21,2,7.43,3.13c2.21,1.13,4.11,2.45,5.7,3.97c1.58,1.52,2.8,3.3,3.65,5.34
				c0.85,2.04,1.27,4.47,1.27,7.3c0,3.95-0.86,7.33-2.57,10.13c-1.72,2.8-4,5.08-6.84,6.84s-6.12,3.04-9.84,3.84
				c-3.71,0.8-7.57,1.21-11.56,1.21C118.34,813.87,111.54,812.74,105.29,810.49z"/>
			<path class="st2" d="M208.67,811.46c-3.04,1.61-7.62,2.41-13.75,2.41c-14.51,0-21.76-7.54-21.76-22.61v-30.55h-10.81v-15.18
				h10.81v-14.4l20.52-5.86v20.26h14.98v15.18h-14.98v26.97c0,6.95,2.76,10.42,8.27,10.42c2.17,0,4.41-0.63,6.71-1.89V811.46z"/>
			<path class="st2" d="M280.2,784.75h-43.52c0.69,9.69,6.8,14.53,18.31,14.53c7.34,0,13.79-1.74,19.35-5.21v14.85
				c-6.17,3.3-14.18,4.95-24.04,4.95c-10.77,0-19.13-2.99-25.08-8.96c-5.95-5.97-8.92-14.3-8.92-24.98
				c0-11.08,3.21-19.85,9.64-26.32c6.43-6.47,14.33-9.71,23.71-9.71c9.73,0,17.25,2.89,22.57,8.66c5.32,5.78,7.98,13.62,7.98,23.52
				V784.75z M261.12,772.12c0-9.55-3.87-14.33-11.6-14.33c-3.3,0-6.16,1.37-8.57,4.1c-2.41,2.74-3.88,6.15-4.4,10.23H261.12z"/>
			<path class="st2" d="M313.3,804.49h-0.26v38.44h-20.59v-97.39h20.59v10.03h0.26c5.08-7.77,12.22-11.66,21.43-11.66
				c8.64,0,15.32,2.96,20.03,8.89c4.71,5.93,7.07,14,7.07,24.2c0,11.12-2.75,20.04-8.24,26.77c-5.49,6.73-12.8,10.1-21.92,10.1
				C323.63,813.87,317.51,810.75,313.3,804.49z M312.71,777.13v5.34c0,4.6,1.21,8.36,3.65,11.27c2.43,2.91,5.62,4.36,9.58,4.36
				c4.69,0,8.33-1.81,10.91-5.44c2.58-3.63,3.88-8.76,3.88-15.41c0-11.73-4.56-17.59-13.68-17.59c-4.21,0-7.66,1.6-10.33,4.79
				C314.05,767.65,312.71,771.88,312.71,777.13z"/>
			<path class="st2" d="M396.03,804.49h-0.26v7.75h-20.59v-98.76h20.59v42.08h0.26c5.08-7.77,12.31-11.66,21.69-11.66
				c8.6,0,15.22,2.95,19.87,8.86c4.65,5.91,6.97,13.99,6.97,24.23c0,11.12-2.71,20.04-8.14,26.77c-5.43,6.73-12.68,10.1-21.76,10.1
				C406.45,813.87,400.24,810.75,396.03,804.49z M395.44,776.35v6.84c0,4.3,1.24,7.86,3.71,10.68c2.48,2.82,5.64,4.23,9.51,4.23
				c4.69,0,8.33-1.81,10.91-5.44c2.58-3.63,3.88-8.76,3.88-15.41c0-5.52-1.18-9.83-3.55-12.93c-2.37-3.1-5.74-4.66-10.13-4.66
				c-4.13,0-7.55,1.54-10.26,4.63C396.8,767.38,395.44,771.4,395.44,776.35z"/>
			<path class="st2" d="M489.71,813.87c-11.12,0-19.86-3.12-26.22-9.35c-6.36-6.23-9.54-14.69-9.54-25.37
				c0-11.03,3.3-19.66,9.9-25.89c6.6-6.23,15.53-9.35,26.77-9.35c11.07,0,19.76,3.12,26.06,9.35c6.3,6.23,9.45,14.47,9.45,24.72
				c0,11.08-3.25,19.83-9.74,26.25C509.89,810.66,501,813.87,489.71,813.87z M490.23,759.67c-4.87,0-8.64,1.67-11.34,5.02
				c-2.69,3.34-4.04,8.08-4.04,14.2c0,12.81,5.17,19.22,15.5,19.22c9.86,0,14.79-6.58,14.79-19.74
				C505.15,765.9,500.18,759.67,490.23,759.67z"/>
			<path class="st2" d="M571.27,813.87c-11.12,0-19.86-3.12-26.22-9.35c-6.36-6.23-9.54-14.69-9.54-25.37
				c0-11.03,3.3-19.66,9.9-25.89c6.6-6.23,15.53-9.35,26.77-9.35c11.07,0,19.76,3.12,26.06,9.35c6.3,6.23,9.45,14.47,9.45,24.72
				c0,11.08-3.25,19.83-9.74,26.25C591.46,810.66,582.56,813.87,571.27,813.87z M571.79,759.67c-4.87,0-8.64,1.67-11.34,5.02
				c-2.69,3.34-4.04,8.08-4.04,14.2c0,12.81,5.17,19.22,15.5,19.22c9.86,0,14.79-6.58,14.79-19.74
				C586.71,765.9,581.74,759.67,571.79,759.67z"/>
			<path class="st2" d="M687.88,812.24h-24.69l-21.3-33.09h-0.26v33.09h-20.59v-98.76h20.59v62.87h0.26l19.87-30.81h24.43
				l-23.91,31.33L687.88,812.24z"/>
		</g>
		<g>
			<path class="st2" d="M121.74,877.03c0,0.64,0.12,1.1,0.35,1.38c0.23,0.28,0.64,0.42,1.22,0.42c0.15,0,0.45-0.03,0.92-0.09
				l0.57,3.71c-1.08,0.38-2.11,0.57-3.1,0.57c-1.66,0-2.97-0.44-3.93-1.33s-1.44-2.18-1.44-3.87v-27.71h5.42V877.03z"/>
			<path class="st2" d="M148.7,872.53h-14.99c0.03,2.21,0.55,3.84,1.57,4.87c1.02,1.03,2.55,1.55,4.59,1.55
				c1.14,0,2.18-0.17,3.12-0.5c0.95-0.33,1.97-0.81,3.08-1.42l1.92,3.23c-1.05,0.79-2.32,1.44-3.82,1.97
				c-1.5,0.52-3.05,0.79-4.65,0.79c-2.3,0-4.29-0.47-5.96-1.42c-1.68-0.95-2.95-2.24-3.82-3.89c-0.87-1.65-1.31-3.53-1.31-5.66v-2.4
				c0-2.1,0.42-3.98,1.27-5.66c0.84-1.68,2.05-2.99,3.63-3.96c1.57-0.96,3.41-1.44,5.51-1.44c3.2,0,5.68,0.97,7.43,2.91
				c1.75,1.94,2.62,4.74,2.62,8.41C148.88,870.73,148.82,871.6,148.7,872.53z M144.03,868.78c0-2.01-0.44-3.55-1.31-4.61
				c-0.87-1.06-2.16-1.6-3.85-1.6c-1.66,0-2.92,0.54-3.78,1.62c-0.86,1.08-1.32,2.68-1.38,4.81h10.31V868.78z"/>
			<path class="st2" d="M169.63,860.76c1.51,1.44,2.27,3.45,2.27,6.01v15.69h-4.24l-0.44-2.23c-1.89,1.86-4.19,2.8-6.9,2.8
				c-1.4,0-2.69-0.27-3.87-0.81s-2.12-1.31-2.82-2.32c-0.7-1-1.05-2.16-1.05-3.47v-1.53c0-2.04,0.86-3.67,2.58-4.89
				c1.72-1.22,4.08-1.83,7.08-1.83h4.28v-1.57c0-1.37-0.34-2.37-1.03-2.99c-0.68-0.63-1.73-0.94-3.12-0.94
				c-1.22,0-2.37,0.15-3.43,0.44c-1.06,0.29-2.18,0.73-3.34,1.31l-1.66-3.37c2.68-1.63,5.65-2.45,8.91-2.45
				C165.86,858.59,168.12,859.32,169.63,860.76z M164.19,878.43c0.89-0.38,1.67-0.95,2.34-1.7v-5.16h-3.76
				c-3.21,0-4.81,1.18-4.81,3.54v0.87c0,0.93,0.28,1.67,0.85,2.21c0.57,0.54,1.42,0.81,2.56,0.81
				C162.36,879,163.3,878.81,164.19,878.43z"/>
			<path class="st2" d="M192.88,859.12l-0.96,5.03c-0.44-0.09-0.9-0.13-1.4-0.13c-1.4,0-2.62,0.35-3.65,1.05
				c-1.03,0.7-1.86,1.86-2.47,3.5v13.9h-5.42v-23.25h3.93l0.87,3.67c0.64-1.43,1.52-2.48,2.64-3.17c1.12-0.68,2.34-1.03,3.65-1.03
				C191.07,858.68,192.01,858.83,192.88,859.12z"/>
			<path class="st2" d="M214.53,860.65c1.41,1.37,2.12,3.28,2.12,5.72v16.08h-5.42v-15.64c0-2.74-1.21-4.11-3.63-4.11
				c-1.98,0-3.66,0.96-5.02,2.88v16.87h-5.42v-23.25h4.63l0.35,2.36c1.66-1.98,3.96-2.97,6.9-2.97
				C211.29,858.59,213.12,859.28,214.53,860.65z"/>
			<path class="st2" d="M222.29,888.96c0.84-1.17,1.43-2.21,1.77-3.12c0.33-0.92,0.59-1.99,0.76-3.21
				c-1.25-0.64-1.88-1.66-1.88-3.06c0-0.96,0.33-1.78,1-2.45c0.67-0.67,1.47-1,2.4-1c0.99,0,1.81,0.32,2.47,0.96
				c0.66,0.64,0.98,1.47,0.98,2.49c0,3.67-1.82,7.34-5.46,11.01L222.29,888.96z"/>
			<path class="st2" d="M248.7,879.96c-1.88-2.04-2.82-4.76-2.82-8.17v-1.97c0-3.44,0.93-6.17,2.8-8.19
				c1.86-2.02,4.49-3.04,7.87-3.04c1.54,0,2.94,0.25,4.19,0.74c1.25,0.5,2.42,1.27,3.5,2.32l-2.58,2.88
				c-0.73-0.64-1.47-1.11-2.23-1.4c-0.76-0.29-1.65-0.44-2.67-0.44c-1.75,0-3.1,0.59-4.04,1.77c-0.95,1.18-1.42,2.93-1.42,5.27v2.14
				c0,2.33,0.46,4.09,1.38,5.29c0.92,1.19,2.27,1.79,4.04,1.79c0.96,0,1.83-0.16,2.62-0.48c0.79-0.32,1.62-0.79,2.49-1.4l2.23,3.19
				c-0.99,0.82-2.16,1.48-3.52,1.99c-1.35,0.51-2.72,0.76-4.09,0.76C253.17,883.02,250.58,882,248.7,879.96z"/>
			<path class="st2" d="M283.99,859.99c1.66,0.93,2.91,2.23,3.76,3.89c0.84,1.66,1.27,3.57,1.27,5.72v2.36
				c0,3.35-0.96,6.03-2.88,8.04c-1.92,2.01-4.63,3.02-8.13,3.02c-3.47,0-6.15-1-8.04-3.02c-1.89-2.01-2.84-4.69-2.84-8.04v-2.36
				c0-2.16,0.42-4.06,1.25-5.72c0.83-1.66,2.06-2.96,3.69-3.89c1.63-0.93,3.61-1.4,5.94-1.4
				C280.33,858.59,282.33,859.06,283.99,859.99z M273.94,864.43c-0.93,1.15-1.4,2.85-1.4,5.09v2.45c0,2.3,0.46,4.04,1.38,5.22
				c0.92,1.18,2.28,1.77,4.09,1.77c1.81,0,3.19-0.59,4.15-1.77s1.44-2.92,1.44-5.22v-2.45c0-2.21-0.48-3.9-1.44-5.07
				c-0.96-1.16-2.35-1.75-4.15-1.75C276.23,862.7,274.87,863.28,273.94,864.43z"/>
			<path class="st2" d="M322.64,859.51c1.09,0.61,1.96,1.5,2.6,2.67c0.64,1.17,0.96,2.56,0.96,4.19v16.08h-5.38v-15.69
				c0-1.37-0.3-2.39-0.9-3.06s-1.36-1.01-2.29-1.01c-1.6,0-3.07,0.98-4.41,2.93v16.82h-5.42v-15.69c0-1.4-0.29-2.43-0.87-3.08
				c-0.58-0.66-1.34-0.98-2.27-0.98c-0.85,0-1.63,0.25-2.36,0.74c-0.73,0.5-1.43,1.24-2.1,2.23v16.78h-5.38v-23.25h4.63l0.31,2.36
				c1.66-1.98,3.76-2.97,6.29-2.97c1.28,0,2.48,0.31,3.58,0.92c1.11,0.61,1.97,1.49,2.58,2.62c1.78-2.36,4.05-3.54,6.82-3.54
				C320.35,858.59,321.55,858.9,322.64,859.51z"/>
			<path class="st2" d="M361.09,859.51c1.09,0.61,1.96,1.5,2.6,2.67c0.64,1.17,0.96,2.56,0.96,4.19v16.08h-5.38v-15.69
				c0-1.37-0.3-2.39-0.9-3.06s-1.36-1.01-2.29-1.01c-1.6,0-3.07,0.98-4.41,2.93v16.82h-5.42v-15.69c0-1.4-0.29-2.43-0.87-3.08
				c-0.58-0.66-1.34-0.98-2.27-0.98c-0.85,0-1.63,0.25-2.36,0.74c-0.73,0.5-1.43,1.24-2.1,2.23v16.78h-5.38v-23.25h4.63l0.31,2.36
				c1.66-1.98,3.76-2.97,6.29-2.97c1.28,0,2.48,0.31,3.58,0.92c1.11,0.61,1.97,1.49,2.58,2.62c1.78-2.36,4.05-3.54,6.82-3.54
				C358.8,858.59,360,858.9,361.09,859.51z"/>
			<path class="st2" d="M390.66,859.21v23.25h-4.59l-0.39-2.58c-1.92,2.1-4.25,3.15-6.99,3.15c-1.37,0-2.62-0.29-3.74-0.87
				c-1.12-0.58-2.01-1.41-2.67-2.47c-0.66-1.06-0.98-2.31-0.98-3.74v-16.74h5.42v16.47c0,1.05,0.28,1.86,0.83,2.43
				c0.55,0.57,1.37,0.85,2.45,0.85c0.96,0,1.91-0.26,2.84-0.79c0.93-0.52,1.73-1.25,2.4-2.19v-16.78H390.66z"/>
			<path class="st2" d="M415.54,860.65c1.41,1.37,2.12,3.28,2.12,5.72v16.08h-5.42v-15.64c0-2.74-1.21-4.11-3.63-4.11
				c-1.98,0-3.66,0.96-5.03,2.88v16.87h-5.42v-23.25h4.63l0.35,2.36c1.66-1.98,3.96-2.97,6.9-2.97
				C412.3,858.59,414.13,859.28,415.54,860.65z"/>
			<path class="st2" d="M431.08,882.45h-5.42v-19.23h-3.5v-4.02h8.91V882.45z M425.83,854.64c-0.64-0.63-0.96-1.39-0.96-2.29
				s0.32-1.68,0.96-2.32c0.64-0.64,1.41-0.96,2.32-0.96s1.67,0.31,2.32,0.94c0.64,0.63,0.96,1.41,0.96,2.34
				c0,0.9-0.32,1.67-0.96,2.29c-0.64,0.63-1.41,0.94-2.32,0.94S426.47,855.27,425.83,854.64z"/>
			<path class="st2" d="M439.71,879.96c-1.88-2.04-2.82-4.76-2.82-8.17v-1.97c0-3.44,0.93-6.17,2.8-8.19
				c1.86-2.02,4.49-3.04,7.87-3.04c1.54,0,2.94,0.25,4.2,0.74c1.25,0.5,2.42,1.27,3.5,2.32l-2.58,2.88
				c-0.73-0.64-1.47-1.11-2.23-1.4c-0.76-0.29-1.65-0.44-2.67-0.44c-1.75,0-3.1,0.59-4.04,1.77c-0.95,1.18-1.42,2.93-1.42,5.27v2.14
				c0,2.33,0.46,4.09,1.38,5.29c0.92,1.19,2.26,1.79,4.04,1.79c0.96,0,1.84-0.16,2.62-0.48c0.79-0.32,1.62-0.79,2.49-1.4l2.23,3.19
				c-0.99,0.82-2.16,1.48-3.52,1.99c-1.36,0.51-2.72,0.76-4.09,0.76C444.17,883.02,441.58,882,439.71,879.96z"/>
			<path class="st2" d="M475.08,860.76c1.51,1.44,2.27,3.45,2.27,6.01v15.69h-4.24l-0.44-2.23c-1.89,1.86-4.2,2.8-6.9,2.8
				c-1.4,0-2.69-0.27-3.87-0.81s-2.12-1.31-2.82-2.32s-1.05-2.16-1.05-3.47v-1.53c0-2.04,0.86-3.67,2.58-4.89
				c1.72-1.22,4.08-1.83,7.08-1.83h4.28v-1.57c0-1.37-0.34-2.37-1.03-2.99c-0.69-0.63-1.73-0.94-3.12-0.94
				c-1.22,0-2.37,0.15-3.43,0.44c-1.06,0.29-2.18,0.73-3.34,1.31l-1.66-3.37c2.68-1.63,5.65-2.45,8.91-2.45
				C471.3,858.59,473.56,859.32,475.08,860.76z M469.64,878.43c0.89-0.38,1.67-0.95,2.34-1.7v-5.16h-3.76
				c-3.21,0-4.81,1.18-4.81,3.54v0.87c0,0.93,0.28,1.67,0.85,2.21c0.57,0.54,1.42,0.81,2.56,0.81
				C467.81,879,468.75,878.81,469.64,878.43z"/>
			<path class="st2" d="M496.71,882.45c-1.31,0.38-2.67,0.57-4.06,0.57c-2.27,0-4.01-0.52-5.22-1.55c-1.21-1.03-1.81-2.63-1.81-4.79
				v-13.46h-3.54v-4.02h3.67l0.44-5.72h4.85v5.72h5.03v4.02h-5.03v13.15c0,0.85,0.23,1.47,0.7,1.88c0.47,0.41,1.18,0.61,2.14,0.61
				c0.73,0,1.49-0.07,2.27-0.22L496.71,882.45z"/>
			<path class="st2" d="M520.09,872.53H505.1c0.03,2.21,0.55,3.84,1.57,4.87s2.55,1.55,4.59,1.55c1.14,0,2.18-0.17,3.12-0.5
				c0.95-0.33,1.97-0.81,3.08-1.42l1.92,3.23c-1.05,0.79-2.32,1.44-3.82,1.97s-3.05,0.79-4.65,0.79c-2.3,0-4.29-0.47-5.96-1.42
				c-1.68-0.95-2.95-2.24-3.82-3.89c-0.87-1.65-1.31-3.53-1.31-5.66v-2.4c0-2.1,0.42-3.98,1.27-5.66c0.84-1.68,2.05-2.99,3.63-3.96
				s3.41-1.44,5.51-1.44c3.2,0,5.68,0.97,7.43,2.91s2.62,4.74,2.62,8.41C520.26,870.73,520.2,871.6,520.09,872.53z M515.41,868.78
				c0-2.01-0.44-3.55-1.31-4.61s-2.16-1.6-3.84-1.6c-1.66,0-2.92,0.54-3.78,1.62c-0.86,1.08-1.32,2.68-1.38,4.81h10.31V868.78z"/>
			<path class="st2" d="M524.55,888.96c0.84-1.17,1.43-2.21,1.77-3.12c0.33-0.92,0.59-1.99,0.76-3.21
				c-1.25-0.64-1.88-1.66-1.88-3.06c0-0.96,0.33-1.78,1-2.45c0.67-0.67,1.47-1,2.4-1c0.99,0,1.81,0.32,2.47,0.96
				c0.66,0.64,0.98,1.47,0.98,2.49c0,3.67-1.82,7.34-5.46,11.01L524.55,888.96z"/>
			<path class="st2" d="M550.96,879.96c-1.88-2.04-2.82-4.76-2.82-8.17v-1.97c0-3.44,0.93-6.17,2.8-8.19
				c1.86-2.02,4.49-3.04,7.87-3.04c1.54,0,2.94,0.25,4.2,0.74c1.25,0.5,2.42,1.27,3.5,2.32l-2.58,2.88
				c-0.73-0.64-1.47-1.11-2.23-1.4c-0.76-0.29-1.65-0.44-2.67-0.44c-1.75,0-3.1,0.59-4.04,1.77c-0.95,1.18-1.42,2.93-1.42,5.27v2.14
				c0,2.33,0.46,4.09,1.38,5.29c0.92,1.19,2.26,1.79,4.04,1.79c0.96,0,1.84-0.16,2.62-0.48c0.79-0.32,1.62-0.79,2.49-1.4l2.23,3.19
				c-0.99,0.82-2.16,1.48-3.52,1.99c-1.36,0.51-2.72,0.76-4.09,0.76C555.42,883.02,552.84,882,550.96,879.96z"/>
			<path class="st2" d="M585.2,859.12l-0.96,5.03c-0.44-0.09-0.9-0.13-1.4-0.13c-1.4,0-2.61,0.35-3.65,1.05s-1.86,1.86-2.47,3.5
				v13.9h-5.42v-23.25h3.93l0.87,3.67c0.64-1.43,1.52-2.48,2.64-3.17c1.12-0.68,2.34-1.03,3.65-1.03
				C583.39,858.68,584.32,858.83,585.2,859.12z"/>
			<path class="st2" d="M607.79,872.53H592.8c0.03,2.21,0.55,3.84,1.57,4.87s2.55,1.55,4.59,1.55c1.14,0,2.18-0.17,3.12-0.5
				c0.95-0.33,1.97-0.81,3.08-1.42l1.92,3.23c-1.05,0.79-2.32,1.44-3.82,1.97s-3.05,0.79-4.65,0.79c-2.3,0-4.29-0.47-5.96-1.42
				c-1.68-0.95-2.95-2.24-3.82-3.89c-0.87-1.65-1.31-3.53-1.31-5.66v-2.4c0-2.1,0.42-3.98,1.27-5.66c0.84-1.68,2.05-2.99,3.63-3.96
				s3.41-1.44,5.51-1.44c3.2,0,5.68,0.97,7.43,2.91s2.62,4.74,2.62,8.41C607.96,870.73,607.9,871.6,607.79,872.53z M603.11,868.78
				c0-2.01-0.44-3.55-1.31-4.61s-2.16-1.6-3.84-1.6c-1.66,0-2.92,0.54-3.78,1.62c-0.86,1.08-1.32,2.68-1.38,4.81h10.31V868.78z"/>
			<path class="st2" d="M628.72,860.76c1.51,1.44,2.27,3.45,2.27,6.01v15.69h-4.24l-0.44-2.23c-1.89,1.86-4.2,2.8-6.9,2.8
				c-1.4,0-2.69-0.27-3.87-0.81s-2.12-1.31-2.82-2.32s-1.05-2.16-1.05-3.47v-1.53c0-2.04,0.86-3.67,2.58-4.89
				c1.72-1.22,4.08-1.83,7.08-1.83h4.28v-1.57c0-1.37-0.34-2.37-1.03-2.99c-0.69-0.63-1.73-0.94-3.12-0.94
				c-1.22,0-2.37,0.15-3.43,0.44c-1.06,0.29-2.18,0.73-3.34,1.31l-1.66-3.37c2.68-1.63,5.65-2.45,8.91-2.45
				C624.95,858.59,627.2,859.32,628.72,860.76z M623.28,878.43c0.89-0.38,1.67-0.95,2.34-1.7v-5.16h-3.76
				c-3.21,0-4.81,1.18-4.81,3.54v0.87c0,0.93,0.28,1.67,0.85,2.21c0.57,0.54,1.42,0.81,2.56,0.81
				C621.45,879,622.39,878.81,623.28,878.43z"/>
			<path class="st2" d="M650.35,882.45c-1.31,0.38-2.67,0.57-4.06,0.57c-2.27,0-4.01-0.52-5.22-1.55c-1.21-1.03-1.81-2.63-1.81-4.79
				v-13.46h-3.54v-4.02h3.67l0.44-5.72h4.85v5.72h5.03v4.02h-5.03v13.15c0,0.85,0.23,1.47,0.7,1.88c0.47,0.41,1.18,0.61,2.14,0.61
				c0.73,0,1.49-0.07,2.27-0.22L650.35,882.45z"/>
			<path class="st2" d="M673.73,872.53h-14.99c0.03,2.21,0.55,3.84,1.57,4.87s2.55,1.55,4.59,1.55c1.14,0,2.18-0.17,3.12-0.5
				c0.95-0.33,1.97-0.81,3.08-1.42l1.92,3.23c-1.05,0.79-2.32,1.44-3.82,1.97s-3.05,0.79-4.65,0.79c-2.3,0-4.29-0.47-5.96-1.42
				c-1.68-0.95-2.95-2.24-3.82-3.89c-0.87-1.65-1.31-3.53-1.31-5.66v-2.4c0-2.1,0.42-3.98,1.27-5.66c0.84-1.68,2.05-2.99,3.63-3.96
				s3.41-1.44,5.51-1.44c3.2,0,5.68,0.97,7.43,2.91s2.62,4.74,2.62,8.41C673.9,870.73,673.84,871.6,673.73,872.53z M669.05,868.78
				c0-2.01-0.44-3.55-1.31-4.61s-2.16-1.6-3.84-1.6c-1.66,0-2.92,0.54-3.78,1.62c-0.86,1.08-1.32,2.68-1.38,4.81h10.31V868.78z"/>
		</g>
	</g>
</g>
</svg>
