<?xml version="1.0" encoding="utf-8"?>
<!-- Generator: Adobe Illustrator 27.9.0, SVG Export Plug-In . SVG Version: 6.00 Build 0)  -->
<svg version="1.1" id="Layer_1" xmlns="http://www.w3.org/2000/svg" xmlns:xlink="http://www.w3.org/1999/xlink" x="0px" y="0px"
	 viewBox="0 0 2037.65 832.41" style="enable-background:new 0 0 2037.65 832.41;" xml:space="preserve">
<style type="text/css">
	.st0{fill:#373B4C;}
	.st1{fill:#4CC1FF;}
	.st2{fill:#FFFFFF;}
	.st3{fill:#37ABFE;}
	.st4{fill:#313546;}
</style>
<g>
	<path class="st0" d="M1987.65,832.41H50c-27.61,0-50-22.39-50-50V50C0,22.39,22.39,0,50,0h1937.65c27.61,0,50,22.39,50,50v732.41
		C2037.65,810.02,2015.26,832.41,1987.65,832.41z"/>
	<g>
		<g>
			<path class="st1" d="M679.6,298.33h-38.01l-32.99,16l11.27-18.01c-1.82,0,5.14,1.76,3.46,1.31c-8.49-2.31-14.73-10.08-14.73-19.3
				v-38c0-11.05,8.95-20,20-20h51c11.05,0,20,8.95,20,20v38C699.6,289.38,690.65,298.33,679.6,298.33z"/>
			<g>
				<path class="st1" d="M679.6,403.8h-51c-11.05,0-20-8.95-20-20v-46.15c0-11.05,8.95-20,20-20h51c11.05,0,20,8.95,20,20v46.15
					C699.6,394.84,690.65,403.8,679.6,403.8z"/>
				<path class="st2" d="M578.89,403.65h-51c-11.05,0-20-8.95-20-20V337.5c0-11.05,8.95-20,20-20h51c11.05,0,20,8.95,20,20v46.15
					C598.89,394.7,589.94,403.65,578.89,403.65z"/>
			</g>
			<g>
				<circle class="st2" cx="285.17" cy="153.25" r="42"/>
				<path class="st2" d="M273.75,204.39c0,0,38.25,4.96,38.25,35.47s0.97,51.21,0.97,51.21h77.96c0,0,29.63,5.99,29.63,29.63
					c0,23.64,0.58,65.28,0.58,65.28s-7.44,19.85-23.06,19.85c-19.17,0-26.59-18.35-26.59-18.35v-43.26h-81.21
					c0,0-36.2-9.26-38.22-38.22c-2.03-28.96-1.06-49.3-1.06-49.3l-35.83-1.45l-39.17,40.71c0,0-42.37,17.3-42.37-26.48
					c0-22.52,63.85-65.08,63.85-65.08H273.75z"/>
				<path class="st2" d="M311.28,204.39c0,0,11.62,8.23,13.56,22.76c0.79,5.94,0.61,23.97,0.61,23.97h51.57l50.84-59.56
					c0,0,2.78-18.16-6.72-26.87c-9.19-8.43-28.51-6.9-28.51-6.9l-39.46,45.15L311.28,204.39z"/>
				<path class="st2" d="M248.09,328.35l0.97,36.56c0,0-5.03-0.17-6.05,0.97c-15.74,17.43-59.32,65.85-59.32,65.85
					s-1.76,19.43,9.2,30.02c14.28,13.8,28.08,7.51,28.08,7.51l75.05-79.65v-28.08c0,0-16.95-2.46-22.52-6.05
					C266.42,350.89,248.09,328.35,248.09,328.35z"/>
			</g>
			<g>
				<path class="st3" d="M679.6,699.47h-51c-11.05,0-20-8.95-20-20v-46.15c0-11.05,8.95-20,20-20h51c11.05,0,20,8.95,20,20v46.15
					C699.6,690.51,690.65,699.47,679.6,699.47z"/>
				<path class="st3" d="M578.89,699.33h-51c-11.05,0-20-8.95-20-20v-46.15c0-11.05,8.95-20,20-20h51c11.05,0,20,8.95,20,20v46.15
					C598.89,690.37,589.94,699.33,578.89,699.33z"/>
				<path class="st3" d="M377.47,699.33h-51c-11.05,0-20-8.95-20-20v-46.15c0-11.05,8.95-20,20-20h51c11.05,0,20,8.95,20,20v46.15
					C397.47,690.37,388.51,699.33,377.47,699.33z"/>
				<path class="st3" d="M276.75,699.47h-51c-11.05,0-20-8.95-20-20v-46.15c0-11.05,8.95-20,20-20h51c11.05,0,20,8.95,20,20v46.15
					C296.75,690.51,287.8,699.47,276.75,699.47z"/>
				<path class="st2" d="M176.04,699.33h-51c-11.05,0-20-8.95-20-20v-46.15c0-11.05,8.95-20,20-20h51c11.05,0,20,8.95,20,20v46.15
					C196.04,690.37,187.09,699.33,176.04,699.33z"/>
				<path class="st3" d="M478.18,699.33h-51c-11.05,0-20-8.95-20-20v-46.15c0-11.05,8.95-20,20-20h51c11.05,0,20,8.95,20,20v46.15
					C498.18,690.37,489.22,699.33,478.18,699.33z"/>
			</g>
			<g>
				<path class="st3" d="M679.6,600.91h-51c-11.05,0-20-8.95-20-20v-46.15c0-11.05,8.95-20,20-20h51c11.05,0,20,8.95,20,20v46.15
					C699.6,591.96,690.65,600.91,679.6,600.91z"/>
				<path class="st3" d="M578.89,600.77h-51c-11.05,0-20-8.95-20-20v-46.15c0-11.05,8.95-20,20-20h51c11.05,0,20,8.95,20,20v46.15
					C598.89,591.81,589.94,600.77,578.89,600.77z"/>
				<path class="st3" d="M377.47,600.77h-51c-11.05,0-20-8.95-20-20v-46.15c0-11.05,8.95-20,20-20h51c11.05,0,20,8.95,20,20v46.15
					C397.47,591.81,388.51,600.77,377.47,600.77z"/>
				<path class="st2" d="M276.75,600.91h-51c-11.05,0-20-8.95-20-20v-46.15c0-11.05,8.95-20,20-20h51c11.05,0,20,8.95,20,20v46.15
					C296.75,591.96,287.8,600.91,276.75,600.91z"/>
				<path class="st3" d="M478.18,600.77h-51c-11.05,0-20-8.95-20-20v-46.15c0-11.05,8.95-20,20-20h51c11.05,0,20,8.95,20,20v46.15
					C498.18,591.81,489.22,600.77,478.18,600.77z"/>
			</g>
			<g>
				<path class="st1" d="M679.6,502.35h-51c-11.05,0-20-8.95-20-20V436.2c0-11.05,8.95-20,20-20h51c11.05,0,20,8.95,20,20v46.15
					C699.6,493.4,690.65,502.35,679.6,502.35z"/>
				<path class="st1" d="M578.89,502.21h-51c-11.05,0-20-8.95-20-20v-46.15c0-11.05,8.95-20,20-20h51c11.05,0,20,8.95,20,20v46.15
					C598.89,493.26,589.94,502.21,578.89,502.21z"/>
				<path class="st2" d="M377.47,502.21h-51c-11.05,0-20-8.95-20-20v-46.15c0-11.05,8.95-20,20-20h51c11.05,0,20,8.95,20,20v46.15
					C397.47,493.26,388.51,502.21,377.47,502.21z"/>
				<path class="st2" d="M478.18,502.21h-51c-11.05,0-20-8.95-20-20v-46.15c0-11.05,8.95-20,20-20h51c11.05,0,20,8.95,20,20v46.15
					C498.18,493.26,489.22,502.21,478.18,502.21z"/>
			</g>
			<g>
				<path class="st2" d="M663.48,201.59h-97.74c0,0-20.01,19.25-26.61,25.74c-9.91,9.74-27.65,12.87-27.65,12.87
					c-6.07,0,11.47-39.96,6.32-42.38c-13.6-6.39-23.01-20.21-23.01-36.22v-50.43c0-22.09,17.91-40,40-40h128.7
					c22.09,0,40,17.91,40,40v50.43C703.48,183.69,685.57,201.59,663.48,201.59z"/>
				<g>
					<circle class="st4" cx="552.05" cy="135.59" r="13.83"/>
					<circle class="st4" cx="596.65" cy="135.59" r="13.83"/>
					<circle class="st4" cx="646.22" cy="135.59" r="13.83"/>
				</g>
			</g>
		</g>
		<g>
			<g>
				<path class="st2" d="M750.25,534.21v-34.41c6.99,4.21,13.95,7.35,20.9,9.41c6.94,2.06,13.51,3.09,19.69,3.09
					c7.53,0,13.46-1.03,17.81-3.09c4.34-2.06,6.52-5.2,6.52-9.41c0-2.69-0.99-4.93-2.96-6.72c-1.97-1.79-4.5-3.36-7.59-4.7
					c-3.09-1.34-6.48-2.55-10.15-3.63c-3.68-1.07-7.21-2.28-10.62-3.63c-5.47-2.06-10.28-4.28-14.45-6.65
					c-4.17-2.37-7.66-5.13-10.48-8.27c-2.82-3.14-4.97-6.76-6.45-10.89c-1.48-4.12-2.22-9-2.22-14.65c0-7.7,1.68-14.34,5.04-19.89
					c3.36-5.55,7.84-10.1,13.44-13.64c5.6-3.54,12.01-6.14,19.22-7.8c7.21-1.66,14.72-2.49,22.51-2.49c6.09,0,12.28,0.47,18.55,1.41
					c6.27,0.94,12.45,2.31,18.55,4.1v32.8c-5.38-3.14-11.13-5.49-17.27-7.06c-6.14-1.57-12.16-2.35-18.08-2.35
					c-2.78,0-5.4,0.25-7.86,0.74c-2.47,0.49-4.64,1.21-6.52,2.15c-1.88,0.94-3.36,2.15-4.44,3.63c-1.07,1.48-1.61,3.16-1.61,5.04
					c0,2.51,0.81,4.66,2.42,6.45c1.61,1.79,3.72,3.34,6.32,4.64c2.6,1.3,5.49,2.46,8.67,3.49c3.18,1.03,6.34,2.08,9.48,3.16
					c5.64,1.97,10.75,4.12,15.32,6.45c4.57,2.33,8.49,5.06,11.76,8.2c3.27,3.14,5.78,6.81,7.53,11.02
					c1.75,4.21,2.62,9.23,2.62,15.05c0,8.16-1.77,15.12-5.31,20.9c-3.54,5.78-8.24,10.49-14.11,14.11
					c-5.87,3.63-12.63,6.27-20.3,7.93c-7.66,1.66-15.61,2.49-23.86,2.49C777.17,541.2,763.15,538.87,750.25,534.21z"/>
				<path class="st2" d="M963.55,536.23c-6.27,3.31-15.72,4.97-28.36,4.97c-29.93,0-44.89-15.55-44.89-46.64v-63.04h-22.31v-31.32
					h22.31V370.5l42.34-12.1v41.8h30.91v31.32h-30.91v55.64c0,14.34,5.69,21.5,17.07,21.5c4.48,0,9.09-1.3,13.84-3.9V536.23z"/>
				<path class="st2" d="M1111.13,481.12h-89.78c1.43,19.98,14.02,29.97,37.77,29.97c15.14,0,28.45-3.58,39.92-10.75v30.65
					c-12.72,6.81-29.26,10.22-49.6,10.22c-22.22,0-39.47-6.16-51.75-18.48c-12.28-12.32-18.41-29.5-18.41-51.54
					c0-22.85,6.63-40.95,19.89-54.3c13.26-13.35,29.57-20.03,48.92-20.03c20.07,0,35.59,5.96,46.57,17.88
					c10.98,11.92,16.47,28.09,16.47,48.52V481.12z M1071.75,455.05c0-19.71-7.98-29.57-23.92-29.57c-6.81,0-12.7,2.82-17.68,8.47
					c-4.97,5.65-8,12.68-9.07,21.1H1071.75z"/>
				<path class="st2" d="M1179.41,521.85h-0.54v79.3h-42.47V400.21h42.47v20.7h0.54c10.48-16.04,25.22-24.06,44.22-24.06
					c17.83,0,31.61,6.12,41.33,18.35c9.72,12.23,14.58,28.88,14.58,49.93c0,22.94-5.67,41.35-17,55.24
					c-11.34,13.89-26.41,20.83-45.23,20.83C1200.74,541.2,1188.1,534.75,1179.41,521.85z M1178.2,465.4v11.02
					c0,9.5,2.51,17.25,7.53,23.25c5.02,6,11.6,9,19.76,9c9.68,0,17.18-3.74,22.51-11.22c5.33-7.48,8-18.08,8-31.79
					c0-24.19-9.41-36.29-28.22-36.29c-8.69,0-15.79,3.29-21.31,9.88C1180.96,445.84,1178.2,454.56,1178.2,465.4z"/>
				<path class="st2" d="M1350.11,521.85h-0.54v15.99h-42.47V334.08h42.47v86.83h0.54c10.48-16.04,25.4-24.06,44.76-24.06
					c17.74,0,31.41,6.09,40.99,18.28c9.59,12.19,14.38,28.85,14.38,50c0,22.94-5.6,41.35-16.8,55.24
					c-11.2,13.89-26.17,20.83-44.89,20.83C1371.62,541.2,1358.8,534.75,1350.11,521.85z M1348.9,463.78v14.11
					c0,8.87,2.55,16.22,7.66,22.04c5.11,5.83,11.65,8.74,19.62,8.74c9.68,0,17.18-3.74,22.51-11.22c5.33-7.48,8-18.08,8-31.79
					c0-11.38-2.44-20.27-7.33-26.68c-4.88-6.41-11.85-9.61-20.9-9.61c-8.51,0-15.57,3.18-21.17,9.54
					C1351.7,445.28,1348.9,453.57,1348.9,463.78z"/>
				<path class="st2" d="M1543.39,541.2c-22.94,0-40.97-6.43-54.1-19.29c-13.13-12.86-19.69-30.31-19.69-52.35
					c0-22.76,6.81-40.57,20.43-53.43c13.62-12.86,32.03-19.29,55.24-19.29c22.85,0,40.77,6.43,53.76,19.29
					c12.99,12.86,19.49,29.86,19.49,51.01c0,22.85-6.7,40.91-20.09,54.17C1585.04,534.57,1566.69,541.2,1543.39,541.2z
					 M1544.47,429.37c-10.04,0-17.83,3.45-23.39,10.35c-5.56,6.9-8.33,16.67-8.33,29.3c0,26.44,10.66,39.65,31.99,39.65
					c20.34,0,30.51-13.57,30.51-40.72C1575.25,442.23,1564.99,429.37,1544.47,429.37z"/>
				<path class="st2" d="M1711.67,541.2c-22.94,0-40.97-6.43-54.1-19.29c-13.13-12.86-19.69-30.31-19.69-52.35
					c0-22.76,6.81-40.57,20.43-53.43c13.62-12.86,32.03-19.29,55.24-19.29c22.85,0,40.77,6.43,53.76,19.29
					c12.99,12.86,19.49,29.86,19.49,51.01c0,22.85-6.7,40.91-20.09,54.17C1753.31,534.57,1734.97,541.2,1711.67,541.2z
					 M1712.75,429.37c-10.04,0-17.83,3.45-23.39,10.35c-5.56,6.9-8.33,16.67-8.33,29.3c0,26.44,10.66,39.65,31.99,39.65
					c20.34,0,30.51-13.57,30.51-40.72C1743.53,442.23,1733.27,429.37,1712.75,429.37z"/>
				<path class="st2" d="M1952.26,537.84h-50.94l-43.95-68.28h-0.54v68.28h-42.47V334.08h42.47v129.71h0.54l40.99-63.58h50.4
					l-49.33,64.65L1952.26,537.84z"/>
			</g>
			<g>
				<path class="st2" d="M784.19,671.52c0,1.32,0.24,2.27,0.72,2.84c0.48,0.57,1.32,0.86,2.52,0.86c0.3,0,0.93-0.06,1.89-0.18
					l1.17,7.66c-2.22,0.78-4.36,1.17-6.4,1.17c-3.43,0-6.13-0.92-8.11-2.75c-1.98-1.83-2.98-4.49-2.98-7.98v-57.16h11.18V671.52z"/>
				<path class="st2" d="M839.82,662.23h-30.92c0.06,4.57,1.14,7.92,3.25,10.05c2.1,2.13,5.26,3.2,9.47,3.2
					c2.34,0,4.49-0.34,6.45-1.04c1.95-0.69,4.07-1.67,6.36-2.93l3.97,6.67c-2.16,1.62-4.79,2.97-7.89,4.06
					c-3.1,1.08-6.3,1.62-9.6,1.62c-4.75,0-8.85-0.98-12.31-2.93c-3.46-1.95-6.09-4.63-7.89-8.02c-1.8-3.4-2.7-7.29-2.7-11.68v-4.96
					c0-4.33,0.87-8.22,2.61-11.67c1.74-3.46,4.24-6.18,7.48-8.16c3.25-1.98,7.03-2.98,11.36-2.98c6.61,0,11.72,2,15.33,6
					c3.61,4,5.41,9.78,5.41,17.36C840.18,658.51,840.06,660.31,839.82,662.23z M830.17,654.48c0-4.15-0.9-7.32-2.7-9.51
					c-1.8-2.19-4.45-3.29-7.93-3.29c-3.43,0-6.03,1.11-7.8,3.34c-1.77,2.22-2.72,5.53-2.84,9.92h21.28V654.48z"/>
				<path class="st2" d="M883,637.94c3.13,2.98,4.69,7.11,4.69,12.4v32.37h-8.75l-0.9-4.6c-3.91,3.85-8.65,5.77-14.25,5.77
					c-2.89,0-5.54-0.56-7.98-1.67s-4.37-2.71-5.81-4.78c-1.44-2.07-2.16-4.46-2.16-7.17v-3.16c0-4.21,1.77-7.57,5.32-10.1
					c3.55-2.52,8.41-3.79,14.61-3.79h8.84v-3.25c0-2.82-0.71-4.88-2.12-6.18c-1.41-1.29-3.56-1.94-6.45-1.94
					c-2.52,0-4.88,0.3-7.08,0.9c-2.2,0.6-4.49,1.5-6.9,2.71l-3.43-6.94c5.53-3.36,11.66-5.05,18.39-5.05
					C875.22,633.47,879.88,634.96,883,637.94z M871.78,674.4c1.83-0.78,3.44-1.95,4.82-3.52v-10.64h-7.75
					c-6.61,0-9.92,2.43-9.92,7.3v1.8c0,1.93,0.59,3.44,1.76,4.55c1.17,1.11,2.93,1.67,5.27,1.67
					C868.01,675.58,869.95,675.19,871.78,674.4z"/>
				<path class="st2" d="M930.97,634.55l-1.98,10.37c-0.9-0.18-1.86-0.27-2.88-0.27c-2.89,0-5.4,0.72-7.53,2.16
					c-2.13,1.44-3.83,3.85-5.09,7.21v28.67H902.3v-47.96h8.11l1.8,7.57c1.32-2.94,3.14-5.12,5.45-6.54
					c2.31-1.41,4.82-2.12,7.53-2.12C927.24,633.65,929.16,633.95,930.97,634.55z"/>
				<path class="st2" d="M975.64,637.71c2.91,2.83,4.37,6.76,4.37,11.81v33.18h-11.18v-32.28c0-5.65-2.49-8.48-7.48-8.48
					c-4.09,0-7.54,1.98-10.37,5.95v34.8H939.8v-47.96h9.56l0.72,4.87c3.43-4.09,8.17-6.13,14.25-6.13
					C968.95,633.47,972.72,634.89,975.64,637.71z"/>
				<path class="st2" d="M991.64,696.13c1.74-2.4,2.96-4.55,3.65-6.45c0.69-1.89,1.22-4.1,1.58-6.63c-2.59-1.32-3.88-3.43-3.88-6.31
					c0-1.98,0.69-3.67,2.07-5.05c1.38-1.38,3.03-2.07,4.96-2.07c2.04,0,3.74,0.66,5.09,1.98c1.35,1.32,2.03,3.04,2.03,5.14
					c0,7.57-3.76,15.15-11.27,22.72L991.64,696.13z"/>
				<path class="st2" d="M1046.14,677.56c-3.88-4.21-5.82-9.83-5.82-16.86v-4.06c0-7.09,1.92-12.73,5.77-16.9
					c3.85-4.18,9.26-6.27,16.23-6.27c3.18,0,6.07,0.51,8.65,1.53c2.58,1.02,4.99,2.62,7.21,4.78l-5.32,5.95
					c-1.5-1.32-3.04-2.28-4.6-2.89c-1.56-0.6-3.4-0.9-5.5-0.9c-3.61,0-6.39,1.22-8.34,3.65c-1.95,2.43-2.93,6.05-2.93,10.86v4.42
					c0,4.81,0.95,8.45,2.84,10.91c1.89,2.46,4.67,3.7,8.34,3.7c1.98,0,3.79-0.33,5.41-0.99c1.62-0.66,3.34-1.62,5.14-2.89l4.6,6.58
					c-2.04,1.68-4.46,3.05-7.26,4.1c-2.79,1.05-5.61,1.58-8.43,1.58C1055.35,683.87,1050.02,681.77,1046.14,677.56z"/>
				<path class="st2" d="M1118.95,636.36c3.43,1.92,6.01,4.6,7.75,8.03c1.74,3.43,2.61,7.36,2.61,11.81v4.87
					c0,6.91-1.98,12.44-5.95,16.59c-3.97,4.15-9.56,6.22-16.77,6.22c-7.15,0-12.68-2.07-16.59-6.22c-3.91-4.15-5.86-9.68-5.86-16.59
					v-4.87c0-4.45,0.86-8.38,2.57-11.81c1.71-3.43,4.25-6.1,7.62-8.03c3.37-1.92,7.45-2.89,12.26-2.89
					C1111.4,633.47,1115.52,634.44,1118.95,636.36z M1098.21,645.51c-1.92,2.38-2.89,5.88-2.89,10.5v5.05
					c0,4.75,0.95,8.34,2.84,10.77c1.89,2.43,4.7,3.65,8.43,3.65c3.73,0,6.58-1.22,8.57-3.65s2.97-6.02,2.97-10.77v-5.05
					c0-4.57-0.99-8.05-2.97-10.46c-1.98-2.4-4.84-3.61-8.57-3.61C1102.93,641.95,1100.13,643.14,1098.21,645.51z"/>
				<path class="st2" d="M1198.69,635.37c2.25,1.26,4.04,3.1,5.36,5.5c1.32,2.4,1.98,5.29,1.98,8.65v33.18h-11.09v-32.37
					c0-2.82-0.62-4.93-1.85-6.31c-1.23-1.38-2.81-2.08-4.73-2.08c-3.31,0-6.34,2.01-9.11,6.04v34.71h-11.18v-32.37
					c0-2.89-0.6-5-1.8-6.36c-1.2-1.35-2.77-2.03-4.69-2.03c-1.74,0-3.37,0.51-4.87,1.53c-1.5,1.02-2.95,2.55-4.33,4.6v34.62h-11.09
					v-47.96h9.56l0.63,4.87c3.43-4.09,7.75-6.13,12.98-6.13c2.64,0,5.11,0.63,7.39,1.89c2.28,1.26,4.06,3.06,5.32,5.41
					c3.67-4.87,8.35-7.3,14.06-7.3C1193.96,633.47,1196.44,634.1,1198.69,635.37z"/>
				<path class="st2" d="M1278.03,635.37c2.25,1.26,4.04,3.1,5.36,5.5c1.32,2.4,1.98,5.29,1.98,8.65v33.18h-11.09v-32.37
					c0-2.82-0.62-4.93-1.85-6.31c-1.23-1.38-2.81-2.08-4.73-2.08c-3.31,0-6.34,2.01-9.11,6.04v34.71h-11.18v-32.37
					c0-2.89-0.6-5-1.8-6.36c-1.2-1.35-2.77-2.03-4.69-2.03c-1.74,0-3.37,0.51-4.87,1.53c-1.5,1.02-2.95,2.55-4.33,4.6v34.62h-11.09
					v-47.96h9.56l0.63,4.87c3.43-4.09,7.75-6.13,12.98-6.13c2.64,0,5.11,0.63,7.39,1.89c2.28,1.26,4.06,3.06,5.32,5.41
					c3.67-4.87,8.35-7.3,14.06-7.3C1273.3,633.47,1275.77,634.1,1278.03,635.37z"/>
				<path class="st2" d="M1339.02,634.74v47.96h-9.47l-0.81-5.32c-3.97,4.33-8.78,6.49-14.43,6.49c-2.83,0-5.4-0.6-7.71-1.8
					c-2.31-1.2-4.15-2.9-5.5-5.09c-1.35-2.19-2.03-4.76-2.03-7.71v-34.53h11.18v33.99c0,2.16,0.57,3.83,1.71,5
					c1.14,1.17,2.82,1.76,5.05,1.76c1.98,0,3.94-0.54,5.86-1.62c1.92-1.08,3.58-2.58,4.96-4.51v-34.62H1339.02z"/>
				<path class="st2" d="M1390.36,637.71c2.92,2.83,4.37,6.76,4.37,11.81v33.18h-11.18v-32.28c0-5.65-2.49-8.48-7.48-8.48
					c-4.09,0-7.54,1.98-10.37,5.95v34.8h-11.18v-47.96h9.56l0.72,4.87c3.43-4.09,8.17-6.13,14.25-6.13
					C1383.68,633.47,1387.45,634.89,1390.36,637.71z"/>
				<path class="st2" d="M1422.42,682.7h-11.18v-39.67h-7.21v-8.29h18.39V682.7z M1411.6,625.31c-1.32-1.29-1.98-2.87-1.98-4.73
					s0.66-3.46,1.98-4.78c1.32-1.32,2.91-1.98,4.78-1.98c1.86,0,3.46,0.64,4.78,1.94c1.32,1.29,1.98,2.9,1.98,4.82
					c0,1.86-0.66,3.44-1.98,4.73c-1.32,1.29-2.92,1.94-4.78,1.94C1414.51,627.25,1412.92,626.61,1411.6,625.31z"/>
				<path class="st2" d="M1440.22,677.56c-3.88-4.21-5.81-9.83-5.81-16.86v-4.06c0-7.09,1.92-12.73,5.77-16.9
					c3.85-4.18,9.25-6.27,16.23-6.27c3.19,0,6.07,0.51,8.66,1.53c2.58,1.02,4.99,2.62,7.21,4.78l-5.32,5.95
					c-1.5-1.32-3.04-2.28-4.6-2.89c-1.57-0.6-3.4-0.9-5.5-0.9c-3.61,0-6.39,1.22-8.34,3.65c-1.95,2.43-2.93,6.05-2.93,10.86v4.42
					c0,4.81,0.95,8.45,2.84,10.91c1.89,2.46,4.67,3.7,8.34,3.7c1.98,0,3.79-0.33,5.41-0.99c1.62-0.66,3.34-1.62,5.14-2.89l4.6,6.58
					c-2.05,1.68-4.46,3.05-7.26,4.1c-2.8,1.05-5.61,1.58-8.43,1.58C1449.43,683.87,1444.1,681.77,1440.22,677.56z"/>
				<path class="st2" d="M1513.2,637.94c3.13,2.98,4.69,7.11,4.69,12.4v32.37h-8.75l-0.9-4.6c-3.91,3.85-8.66,5.77-14.25,5.77
					c-2.89,0-5.54-0.56-7.98-1.67s-4.37-2.71-5.81-4.78s-2.16-4.46-2.16-7.17v-3.16c0-4.21,1.77-7.57,5.32-10.1
					c3.55-2.52,8.41-3.79,14.61-3.79h8.84v-3.25c0-2.82-0.71-4.88-2.12-6.18c-1.41-1.29-3.56-1.94-6.45-1.94
					c-2.52,0-4.88,0.3-7.08,0.9c-2.2,0.6-4.5,1.5-6.9,2.71l-3.43-6.94c5.53-3.36,11.66-5.05,18.39-5.05
					C1505.42,633.47,1510.08,634.96,1513.2,637.94z M1501.98,674.4c1.83-0.78,3.44-1.95,4.82-3.52v-10.64h-7.75
					c-6.61,0-9.92,2.43-9.92,7.3v1.8c0,1.93,0.59,3.44,1.76,4.55c1.17,1.11,2.93,1.67,5.27,1.67
					C1498.21,675.58,1500.14,675.19,1501.98,674.4z"/>
				<path class="st2" d="M1557.83,682.7c-2.7,0.78-5.5,1.17-8.38,1.17c-4.69,0-8.28-1.07-10.78-3.2c-2.49-2.13-3.74-5.42-3.74-9.87
					v-27.77h-7.3v-8.29h7.57l0.9-11.81h10.01v11.81h10.37v8.29h-10.37v27.14c0,1.74,0.48,3.04,1.44,3.88
					c0.96,0.84,2.43,1.26,4.42,1.26c1.5,0,3.06-0.15,4.69-0.45L1557.83,682.7z"/>
				<path class="st2" d="M1606.07,662.23h-30.93c0.06,4.57,1.14,7.92,3.25,10.05c2.1,2.13,5.26,3.2,9.47,3.2
					c2.34,0,4.49-0.34,6.45-1.04c1.95-0.69,4.07-1.67,6.36-2.93l3.97,6.67c-2.16,1.62-4.8,2.97-7.89,4.06
					c-3.09,1.08-6.3,1.62-9.6,1.62c-4.75,0-8.85-0.98-12.31-2.93c-3.46-1.95-6.09-4.63-7.89-8.02c-1.8-3.4-2.7-7.29-2.7-11.68v-4.96
					c0-4.33,0.87-8.22,2.62-11.67c1.74-3.46,4.24-6.18,7.48-8.16c3.25-1.98,7.03-2.98,11.36-2.98c6.61,0,11.72,2,15.33,6
					c3.61,4,5.41,9.78,5.41,17.36C1606.43,658.51,1606.31,660.31,1606.07,662.23z M1596.42,654.48c0-4.15-0.9-7.32-2.71-9.51
					c-1.8-2.19-4.45-3.29-7.93-3.29c-3.43,0-6.03,1.11-7.8,3.34c-1.77,2.22-2.72,5.53-2.84,9.92h21.28V654.48z"/>
				<path class="st2" d="M1615.26,696.13c1.74-2.4,2.96-4.55,3.65-6.45c0.69-1.89,1.22-4.1,1.58-6.63
					c-2.59-1.32-3.88-3.43-3.88-6.31c0-1.98,0.69-3.67,2.07-5.05c1.38-1.38,3.03-2.07,4.96-2.07c2.04,0,3.74,0.66,5.09,1.98
					c1.35,1.32,2.03,3.04,2.03,5.14c0,7.57-3.76,15.15-11.27,22.72L1615.26,696.13z"/>
				<path class="st2" d="M1669.76,677.56c-3.88-4.21-5.81-9.83-5.81-16.86v-4.06c0-7.09,1.92-12.73,5.77-16.9
					c3.85-4.18,9.25-6.27,16.23-6.27c3.19,0,6.07,0.51,8.66,1.53c2.58,1.02,4.99,2.62,7.21,4.78l-5.32,5.95
					c-1.5-1.32-3.04-2.28-4.6-2.89c-1.57-0.6-3.4-0.9-5.5-0.9c-3.61,0-6.39,1.22-8.34,3.65c-1.95,2.43-2.93,6.05-2.93,10.86v4.42
					c0,4.81,0.95,8.45,2.84,10.91c1.89,2.46,4.67,3.7,8.34,3.7c1.98,0,3.79-0.33,5.41-0.99c1.62-0.66,3.34-1.62,5.14-2.89l4.6,6.58
					c-2.05,1.68-4.46,3.05-7.26,4.1c-2.8,1.05-5.61,1.58-8.43,1.58C1678.97,683.87,1673.64,681.77,1669.76,677.56z"/>
				<path class="st2" d="M1740.4,634.55l-1.98,10.37c-0.9-0.18-1.86-0.27-2.89-0.27c-2.89,0-5.39,0.72-7.53,2.16
					c-2.13,1.44-3.83,3.85-5.09,7.21v28.67h-11.18v-47.96h8.11l1.8,7.57c1.32-2.94,3.14-5.12,5.46-6.54
					c2.31-1.41,4.82-2.12,7.53-2.12C1736.67,633.65,1738.6,633.95,1740.4,634.55z"/>
				<path class="st2" d="M1787.01,662.23h-30.93c0.06,4.57,1.14,7.92,3.25,10.05s5.26,3.2,9.47,3.2c2.34,0,4.49-0.34,6.45-1.04
					c1.95-0.69,4.07-1.67,6.36-2.93l3.97,6.67c-2.16,1.62-4.8,2.97-7.89,4.06c-3.09,1.08-6.3,1.62-9.6,1.62
					c-4.75,0-8.85-0.98-12.31-2.93c-3.46-1.95-6.09-4.63-7.89-8.02c-1.8-3.4-2.7-7.29-2.7-11.68v-4.96c0-4.33,0.87-8.22,2.62-11.67
					c1.74-3.46,4.24-6.18,7.48-8.16c3.25-1.98,7.03-2.98,11.36-2.98c6.61,0,11.72,2,15.33,6c3.61,4,5.41,9.78,5.41,17.36
					C1787.37,658.51,1787.25,660.31,1787.01,662.23z M1777.37,654.48c0-4.15-0.9-7.32-2.71-9.51c-1.8-2.19-4.45-3.29-7.93-3.29
					c-3.43,0-6.03,1.11-7.8,3.34c-1.77,2.22-2.72,5.53-2.84,9.92h21.28V654.48z"/>
				<path class="st2" d="M1830.2,637.94c3.12,2.98,4.69,7.11,4.69,12.4v32.37h-8.75l-0.9-4.6c-3.91,3.85-8.66,5.77-14.25,5.77
					c-2.89,0-5.54-0.56-7.98-1.67s-4.37-2.71-5.81-4.78c-1.44-2.07-2.16-4.46-2.16-7.17v-3.16c0-4.21,1.77-7.57,5.32-10.1
					c3.55-2.52,8.41-3.79,14.61-3.79h8.84v-3.25c0-2.82-0.71-4.88-2.12-6.18c-1.41-1.29-3.56-1.94-6.45-1.94
					c-2.52,0-4.88,0.3-7.08,0.9c-2.2,0.6-4.5,1.5-6.9,2.71l-3.43-6.94c5.53-3.36,11.66-5.05,18.39-5.05
					C1822.41,633.47,1827.07,634.96,1830.2,637.94z M1818.97,674.4c1.83-0.78,3.44-1.95,4.82-3.52v-10.64h-7.75
					c-6.61,0-9.92,2.43-9.92,7.3v1.8c0,1.93,0.59,3.44,1.76,4.55c1.17,1.11,2.93,1.67,5.27,1.67
					C1815.2,675.58,1817.14,675.19,1818.97,674.4z"/>
				<path class="st2" d="M1874.83,682.7c-2.7,0.78-5.5,1.17-8.38,1.17c-4.69,0-8.28-1.07-10.78-3.2c-2.49-2.13-3.74-5.42-3.74-9.87
					v-27.77h-7.3v-8.29h7.57l0.9-11.81h10.01v11.81h10.37v8.29h-10.37v27.14c0,1.74,0.48,3.04,1.44,3.88
					c0.96,0.84,2.43,1.26,4.42,1.26c1.5,0,3.06-0.15,4.69-0.45L1874.83,682.7z"/>
				<path class="st2" d="M1923.06,662.23h-30.93c0.06,4.57,1.14,7.92,3.25,10.05s5.26,3.2,9.47,3.2c2.34,0,4.49-0.34,6.45-1.04
					c1.95-0.69,4.07-1.67,6.36-2.93l3.97,6.67c-2.16,1.62-4.8,2.97-7.89,4.06c-3.09,1.08-6.3,1.62-9.6,1.62
					c-4.75,0-8.85-0.98-12.31-2.93c-3.46-1.95-6.09-4.63-7.89-8.02c-1.8-3.4-2.7-7.29-2.7-11.68v-4.96c0-4.33,0.87-8.22,2.62-11.67
					c1.74-3.46,4.24-6.18,7.48-8.16c3.25-1.98,7.03-2.98,11.36-2.98c6.61,0,11.72,2,15.33,6c3.61,4,5.41,9.78,5.41,17.36
					C1923.42,658.51,1923.3,660.31,1923.06,662.23z M1913.41,654.48c0-4.15-0.9-7.32-2.71-9.51c-1.8-2.19-4.45-3.29-7.93-3.29
					c-3.43,0-6.03,1.11-7.8,3.34c-1.77,2.22-2.72,5.53-2.84,9.92h21.28V654.48z"/>
			</g>
		</g>
	</g>
</g>
</svg>
