<?xml version="1.0" encoding="utf-8"?>
<!-- Generator: Adobe Illustrator 27.9.0, SVG Export Plug-In . SVG Version: 6.00 Build 0)  -->
<svg version="1.1" id="Layer_1" xmlns="http://www.w3.org/2000/svg" xmlns:xlink="http://www.w3.org/1999/xlink" x="0px" y="0px"
	 viewBox="0 0 907.03 907.03" style="enable-background:new 0 0 907.03 907.03;" xml:space="preserve">
<style type="text/css">
	.st0{fill:#373B4C;}
	.st1{fill:#4CC1FF;}
	.st2{fill:#FFFFFF;}
	.st3{fill:#37ABFE;}
	.st4{fill:#313546;}
</style>
<g>
	<circle class="st0" cx="453.52" cy="453.52" r="453.52"/>
	<g>
		<g>
			<path class="st1" d="M728.86,366.54h-38.01l-32.99,16l11.27-18.01c-1.82,0,5.14,1.76,3.46,1.31
				c-8.49-2.31-14.73-10.08-14.73-19.3v-38c0-11.05,8.95-20,20-20h51c11.05,0,20,8.95,20,20v38
				C748.86,357.58,739.9,366.54,728.86,366.54z"/>
			<g>
				<path class="st1" d="M728.86,472h-51c-11.05,0-20-8.95-20-20v-46.15c0-11.05,8.95-20,20-20h51c11.05,0,20,8.95,20,20V452
					C748.86,463.04,739.9,472,728.86,472z"/>
				<path class="st2" d="M628.15,471.85h-51c-11.05,0-20-8.95-20-20V405.7c0-11.05,8.95-20,20-20h51c11.05,0,20,8.95,20,20v46.15
					C648.15,462.9,639.19,471.85,628.15,471.85z"/>
			</g>
			<g>
				<circle class="st2" cx="334.43" cy="221.46" r="42"/>
				<path class="st2" d="M323.01,272.59c0,0,38.25,4.96,38.25,35.47c0,30.51,0.97,51.21,0.97,51.21h77.96
					c0,0,29.63,5.99,29.63,29.63s0.58,65.28,0.58,65.28s-7.44,19.85-23.06,19.85c-19.17,0-26.59-18.35-26.59-18.35v-43.26h-81.21
					c0,0-36.2-9.26-38.22-38.22c-2.03-28.96-1.06-49.3-1.06-49.3l-35.83-1.45l-39.17,40.71c0,0-42.37,17.3-42.37-26.48
					c0-22.52,63.85-65.08,63.85-65.08H323.01z"/>
				<path class="st2" d="M360.54,272.59c0,0,11.62,8.23,13.56,22.76c0.79,5.94,0.61,23.97,0.61,23.97h51.57l50.84-59.56
					c0,0,2.78-18.16-6.72-26.87c-9.19-8.43-28.51-6.9-28.51-6.9l-39.46,45.15L360.54,272.59z"/>
				<path class="st2" d="M297.35,396.55l0.97,36.56c0,0-5.03-0.17-6.05,0.97c-15.74,17.43-59.32,65.85-59.32,65.85
					s-1.76,19.43,9.2,30.02c14.28,13.8,28.08,7.51,28.08,7.51l75.05-79.65v-28.08c0,0-16.95-2.46-22.52-6.05
					C315.68,419.09,297.35,396.55,297.35,396.55z"/>
			</g>
			<g>
				<path class="st3" d="M728.86,767.67h-51c-11.05,0-20-8.95-20-20v-46.15c0-11.05,8.95-20,20-20h51c11.05,0,20,8.95,20,20v46.15
					C748.86,758.72,739.9,767.67,728.86,767.67z"/>
				<path class="st3" d="M628.15,767.53h-51c-11.05,0-20-8.95-20-20v-46.15c0-11.05,8.95-20,20-20h51c11.05,0,20,8.95,20,20v46.15
					C648.15,758.57,639.19,767.53,628.15,767.53z"/>
				<path class="st3" d="M426.72,767.53h-51c-11.05,0-20-8.95-20-20v-46.15c0-11.05,8.95-20,20-20h51c11.05,0,20,8.95,20,20v46.15
					C446.72,758.57,437.77,767.53,426.72,767.53z"/>
				<path class="st3" d="M326.01,767.67h-51c-11.05,0-20-8.95-20-20v-46.15c0-11.05,8.95-20,20-20h51c11.05,0,20,8.95,20,20v46.15
					C346.01,758.72,337.06,767.67,326.01,767.67z"/>
				<path class="st2" d="M225.3,767.53h-51c-11.05,0-20-8.95-20-20v-46.15c0-11.05,8.95-20,20-20h51c11.05,0,20,8.95,20,20v46.15
					C245.3,758.57,236.34,767.53,225.3,767.53z"/>
				<path class="st3" d="M527.43,767.53h-51c-11.05,0-20-8.95-20-20v-46.15c0-11.05,8.95-20,20-20h51c11.05,0,20,8.95,20,20v46.15
					C547.43,758.57,538.48,767.53,527.43,767.53z"/>
			</g>
			<g>
				<path class="st3" d="M728.86,669.11h-51c-11.05,0-20-8.95-20-20v-46.15c0-11.05,8.95-20,20-20h51c11.05,0,20,8.95,20,20v46.15
					C748.86,660.16,739.9,669.11,728.86,669.11z"/>
				<path class="st3" d="M628.15,668.97h-51c-11.05,0-20-8.95-20-20v-46.15c0-11.05,8.95-20,20-20h51c11.05,0,20,8.95,20,20v46.15
					C648.15,660.02,639.19,668.97,628.15,668.97z"/>
				<path class="st3" d="M426.72,668.97h-51c-11.05,0-20-8.95-20-20v-46.15c0-11.05,8.95-20,20-20h51c11.05,0,20,8.95,20,20v46.15
					C446.72,660.02,437.77,668.97,426.72,668.97z"/>
				<path class="st2" d="M326.01,669.11h-51c-11.05,0-20-8.95-20-20v-46.15c0-11.05,8.95-20,20-20h51c11.05,0,20,8.95,20,20v46.15
					C346.01,660.16,337.06,669.11,326.01,669.11z"/>
				<path class="st3" d="M527.43,668.97h-51c-11.05,0-20-8.95-20-20v-46.15c0-11.05,8.95-20,20-20h51c11.05,0,20,8.95,20,20v46.15
					C547.43,660.02,538.48,668.97,527.43,668.97z"/>
			</g>
			<g>
				<path class="st1" d="M728.86,570.56h-51c-11.05,0-20-8.95-20-20v-46.15c0-11.05,8.95-20,20-20h51c11.05,0,20,8.95,20,20v46.15
					C748.86,561.6,739.9,570.56,728.86,570.56z"/>
				<path class="st1" d="M628.15,570.41h-51c-11.05,0-20-8.95-20-20v-46.15c0-11.05,8.95-20,20-20h51c11.05,0,20,8.95,20,20v46.15
					C648.15,561.46,639.19,570.41,628.15,570.41z"/>
				<path class="st2" d="M426.72,570.41h-51c-11.05,0-20-8.95-20-20v-46.15c0-11.05,8.95-20,20-20h51c11.05,0,20,8.95,20,20v46.15
					C446.72,561.46,437.77,570.41,426.72,570.41z"/>
				<path class="st2" d="M527.43,570.41h-51c-11.05,0-20-8.95-20-20v-46.15c0-11.05,8.95-20,20-20h51c11.05,0,20,8.95,20,20v46.15
					C547.43,561.46,538.48,570.41,527.43,570.41z"/>
			</g>
			<g>
				<path class="st2" d="M712.74,269.8H615c0,0-20.01,19.25-26.61,25.74c-9.91,9.74-27.65,12.87-27.65,12.87
					c-6.07,0,11.47-39.96,6.32-42.38c-13.6-6.39-23.01-20.21-23.01-36.22v-50.43c0-22.09,17.91-40,40-40h128.7
					c22.09,0,40,17.91,40,40v50.43C752.74,251.89,734.83,269.8,712.74,269.8z"/>
				<g>
					<circle class="st4" cx="601.3" cy="203.8" r="13.83"/>
					<circle class="st4" cx="645.91" cy="203.8" r="13.83"/>
					<circle class="st4" cx="695.48" cy="203.8" r="13.83"/>
				</g>
			</g>
		</g>
	</g>
</g>
</svg>
